<svg width="36" height="23" viewBox="0 0 36 23" fill="none" xmlns="http://www.w3.org/2000/svg">
<path d="M31.2325 10.75H32.4399L31.586 9.89638L23.7186 2.03144C23.5776 1.89049 23.4984 1.69932 23.4984 1.49999C23.4984 1.30066 23.5776 1.10949 23.7186 0.968545C23.8595 0.827597 24.0507 0.748413 24.25 0.748413C24.4493 0.748413 24.6405 0.827597 24.7814 0.968545L34.7814 10.9685L34.7819 10.969C34.8517 11.0387 34.9072 11.1214 34.945 11.2125C34.9828 11.3037 35.0022 11.4013 35.0022 11.5C35.0022 11.5986 34.9828 11.6963 34.945 11.7874C34.9072 11.8786 34.8517 11.9613 34.7819 12.031L34.7814 12.0314L24.7814 22.0314C24.6405 22.1724 24.4493 22.2516 24.25 22.2516C24.0507 22.2516 23.8595 22.1724 23.7186 22.0314C23.5776 21.8905 23.4984 21.6993 23.4984 21.5C23.4984 21.3007 23.5776 21.1095 23.7186 20.9685L31.586 13.1036L32.4399 12.25H31.2325H1.75C1.55109 12.25 1.36032 12.171 1.21967 12.0303L0.866116 12.3839L1.21967 12.0303C1.07902 11.8897 1 11.6989 1 11.5C1 11.3011 1.07902 11.1103 1.21967 10.9697L0.868468 10.6185L1.21967 10.9697C1.36032 10.829 1.55109 10.75 1.75 10.75H31.2325Z" fill="white" stroke="black"/>
</svg>
